<svg width="49" height="49" viewBox="0 0 49 49" fill="none" xmlns="http://www.w3.org/2000/svg">
<path fill-rule="evenodd" clip-rule="evenodd" d="M10.2083 40.8334C8.5838 40.8334 7.02588 40.1881 5.87722 39.0394C4.72856 37.8908 4.08325 36.3329 4.08325 34.7084V14.2917C4.08325 12.6673 4.72856 11.1094 5.87722 9.96072C7.02588 8.81206 8.5838 8.16675 10.2083 8.16675H38.7916C40.416 8.16675 41.974 8.81206 43.1226 9.96072C44.2713 11.1094 44.9166 12.6673 44.9166 14.2917V34.7084C44.9166 36.3329 44.2713 37.8908 43.1226 39.0394C41.974 40.1881 40.416 40.8334 38.7916 40.8334H10.2083ZM15.5676 16.7826C15.3597 16.605 15.1181 16.471 14.8574 16.3885C14.5966 16.3061 14.3219 16.2769 14.0497 16.3026C13.7774 16.3284 13.5131 16.4085 13.2724 16.5384C13.0317 16.6682 12.8196 16.8451 12.6486 17.0586C12.4775 17.272 12.3512 17.5176 12.2769 17.7808C12.2026 18.044 12.182 18.3194 12.2162 18.5908C12.2505 18.8621 12.3388 19.1238 12.4762 19.3603C12.6135 19.5968 12.7969 19.8033 13.0155 19.9676L20.6718 26.0946C21.7581 26.9644 23.1083 27.4383 24.4999 27.4383C25.8916 27.4383 27.2417 26.9644 28.328 26.0946L35.9843 19.9696C36.1937 19.8021 36.368 19.5949 36.4974 19.3599C36.6267 19.125 36.7085 18.8669 36.7381 18.6003C36.7676 18.3337 36.7444 18.064 36.6697 17.8064C36.5951 17.5488 36.4704 17.3084 36.3028 17.099C36.1352 16.8896 35.928 16.7153 35.6931 16.586C35.4581 16.4566 35.2 16.3748 34.9335 16.3453C34.6669 16.3157 34.3971 16.3389 34.1395 16.4136C33.882 16.4883 33.6416 16.613 33.4322 16.7805L25.776 22.9055C25.4138 23.1955 24.9638 23.3534 24.4999 23.3534C24.036 23.3534 23.586 23.1955 23.2239 22.9055L15.5676 16.7826Z" fill="white"/>
</svg>
