<svg xmlns="http://www.w3.org/2000/svg" viewBox="0 0 294.32 59.3">
    <title>Recurso 1</title>
    <g id="Capa_2" data-name="Capa 2">
        <g id="Capa_1-2" data-name="Capa 1">
            <path fill="#ffffff" d="M202.36,11.09a2.86,2.86,0,0,0,2.88-2.85,2.88,2.88,0,1,0-2.88,2.85Z" />
            <path
                fill="#ffffff"
                d="M50.76,13.1l0,0h-.41a15.33,15.33,0,0,0-2,.16,13.79,13.79,0,0,0-8.88,4.23c-3.25,3.62-4.62,8.3-6.29,12.77-1.52,4.07-3.63,8.25-7.43,10.37a14.06,14.06,0,0,1-6.87,1.62,14.94,14.94,0,0,1-7.74-1.87A14,14,0,0,1,5.61,34a24.17,24.17,0,0,1-1.92-8.31A26.79,26.79,0,0,1,5.05,14.37,16.8,16.8,0,0,1,12.1,5.63a14,14,0,0,1,19.71,6.16c.65-1.75,1.31-3.49,2-5.23-1.41.19-2.75-.57-4-1.21A23.57,23.57,0,0,0,16.07,2.86a18.27,18.27,0,0,0-12,6.74,21.62,21.62,0,0,0-4,11.82c-.45,6.82,1.65,14.19,7,18.41,4.72,3.7,11.32,4.4,17.12,2.88a15.35,15.35,0,0,0,6.86-3.57c2.48-2.42,3.67-5.78,4.79-9.07A14.84,14.84,0,0,0,50.37,43.52C58.44,43.52,65,36.7,65,28.31,65,20.07,58.65,13.32,50.76,13.1Zm-.39,29.11c-6.09,0-11-6.42-11-14s4.94-13.79,11-13.79,11,6.17,11,13.79S56.45,42.21,50.37,42.21Z" />
            <path fill="#ffffff"
                d="M71.63,39.74,71.6,0,67,1.79s1.19.6,1.19,4V39.71c0,3.39-1.19,3.78-1.19,3.78H72.8S71.63,43.12,71.63,39.74Z" />
            <path fill="#ffffff"
                d="M79.45,39.74,79.42,0,74.79,1.79s1.19.6,1.19,4V39.71c0,3.39-1.19,3.78-1.19,3.78h5.82S79.45,43.12,79.45,39.74Z" />
            <path fill="#ffffff"
                d="M109.32,39.74V23.11c0-5.2-1.45-10.06-11-10.06-5.2,0-10.43,1.82-13,7.25l3,2c1.16-5,5-8.33,9.94-8.33,6.77,0,7.57,4.54,7.57,9.15v.58c-4.77,2-23.26-1.65-23.26,11,0,3.1,2.53,8.78,11.86,8.78,6.39,0,9.72-3.78,11.4-7.59v3.81c0,3.44,2.19,3.78,4.63,3.78C110.49,43.49,109.32,43.12,109.32,39.74ZM95.2,41.87c-5.49,0-9-2.75-9-8.24,0-9.8,15.59-7.86,19.65-9.73v6.94C105.86,36.56,102.05,41.87,95.2,41.87Z" />
            <path fill="#ffffff"
                d="M128.63,40.59c-5.09,0-8.27,1.91-12,1.91a2,2,0,0,1-2.19-2c0-1.85,2.19-2.64,4-2.81a12.85,12.85,0,0,0,7.25,2.27,13.16,13.16,0,0,0,12.88-13.42,13.5,13.5,0,0,0-5.66-11.08c1.2-1.88,3.13-1.43,4.46-.69a1.6,1.6,0,1,0,1.11-3c-3.24-1-4.94,1.36-5.88,3.41a12.66,12.66,0,0,0-6.91-2.1,13.26,13.26,0,0,0-13,13.44,13.51,13.51,0,0,0,5.4,10.86c-2.7,0-6,1.22-6,4,0,1.68,1.4,3,3.59,3,3.69,0,6.76-2.59,11.65-2.73,5.2-.14,9.38,2.68,9.38,7.88s-4.18,8.61-10.46,8.61c-13.33,0-11.6-11.94-8.41-12.73-7.45-2.59-9.75,13.84,8.24,13.84,9,0,14.44-3.92,14.44-9.95C140.48,41.65,131.61,40.59,128.63,40.59ZM116.15,26.38c0-6.71,4.15-12.17,9.52-12.17s9.41,5.66,9.41,12.4S131,38.77,125.67,38.77,116.15,33.12,116.15,26.38Z" />
            <path fill="#ffffff"
                d="M196.29,39.74V21c0-8.8-16.75-11.8-20-1.19V13.08l-4.66,1.79s1.19.57,1.19,4V30.24c-2,4.11-5.29,8.53-10.23,10.48-7.2,2.55-18-.36-18.16-13.12v-.37h25.21c0-10.23-5.86-14.15-13.9-14.15a14.7,14.7,0,0,0-14.9,14.67,15.5,15.5,0,0,0,16,15.77A13.34,13.34,0,0,0,165,40.78h0a27.4,27.4,0,0,0,7.8-8.51v7.44c0,3.39-1.19,3.78-1.19,3.78,3.07,0,4.66-.59,4.66-3.35V20.41c3.55-8.72,16.55-8.26,16.55,1.22V39.71c0,3.39-1.17,3.78-1.17,3.78h5.83S196.29,43.12,196.29,39.74ZM155.72,14.38c7.42,0,10.66,5.18,10.66,12H144.43C144.92,19.39,150,14.38,155.72,14.38Z" />
            <path fill="#ffffff"
                d="M204.42,39.74l0-26.69-4.64,1.79s1.2.57,1.2,3.95V39.71c0,3.39-1.2,3.78-1.2,3.78h5.83S204.42,43.12,204.42,39.74Z" />
            <path fill="#ffffff"
                d="M222.18,13.08c-8.07,0-14.61,6.85-14.61,15.23s6.54,15.21,14.61,15.21,14.61-6.82,14.61-15.21S230.26,13.08,222.18,13.08Zm0,29.13c-6.08,0-11-6.42-11-14s4.95-13.79,11-13.79,11,6.17,11,13.79S228.27,42.21,222.18,42.21Z" />
            <path fill="#ffffff"
                d="M263.49,39.74l0-26.69-4.63,1.79s1.19.57,1.19,3.95v18c-4.42,7.37-16.57,7-16.57-1.94V13l-4.66,1.82s1.19.37,1.19,3.75V35.53c0,8.31,15.47,10.89,20,2.2v2c0,3.39-1.19,3.78-1.19,3.78h5.82S263.49,43.12,263.49,39.74Z" />
            <path fill="#ffffff"
                d="M272,20.72c0-4.49,4-6.82,7.88-6.82,10.38,0,10.52,6.4,10.52,6.4l1.11-4.67s-4-2.53-11.21-2.53c-11.42,0-11.91,6.46-11.91,7.65,0,11.6,21.38,6.26,21.38,14.7,0,2.3-1.42,7.31-9.32,7.31-8.5,0-10.72-5.92-11.2-7.25l-2.42,2.92c.88,1.17,3.64,5.07,13.56,5.07s13.9-3.64,13.9-8.65C294.32,24.3,272,29.19,272,20.72Z" />
        </g>
    </g>
</svg>