<svg xmlns="http://www.w3.org/2000/svg" xmlns:xlink="http://www.w3.org/1999/xlink" version="1.1"
	id="Capa_1_xA0_Imagen_00000042726216670937894110000011214897212565044630_" x="0px" y="0px"
	viewBox="0 0 81.12 93.6" style="enable-background:new 0 0 81.12 93.6;" xml:space="preserve">
<g>
	<path d="M75.91,54.22c-7.48,0-14.96,0.01-22.45,0.02c-1.45,0-1.66,0.21-1.67,1.62c-0.02,2.6-0.04,5.2-0.04,7.8   c0,1.53,0.24,1.77,1.78,1.77c3.78-0.01,7.56,0,11.34-0.05c1.09-0.01,1.59,0.33,1.58,1.48c-0.04,3.31-0.04,6.62-0.02,9.93   c0.01,0.95-0.38,1.36-1.33,1.35c-3.46-0.03-6.93,0.02-10.39-0.07c-4.23-0.11-8.13-1.28-11.54-3.91   c-6.28-4.84-8.82-12.59-6.51-20.01c2.43-7.79,8.21-12.29,16.47-12.69c2.55-0.12,5.12-0.03,7.68-0.02c1.78,0.01,2-0.19,2-1.91   c0-1.54-0.03-3.07,0.01-4.61c0.2-9.37-3.42-17.07-10.25-23.34c-4.73-4.34-10.22-7.24-16.7-7.38C25.59,3.99,15.31,4.13,5.03,4.09   c-1.01,0-1.4,0.33-1.38,1.37c0.05,2.6-0.02,5.2,0.02,7.8c0.03,2.12-0.54,2.2,2.25,2.2c8.82,0.01,17.64,0,26.46,0.04   c1.57,0.01,3.16,0.09,4.69,0.41c6.76,1.42,10.98,5.77,13.52,11.99c0.84,2.05,0.81,2.1-1.32,2.47   c-14.17,2.48-23.85,13.4-24.62,27.77c-0.72,13.59,8.93,26.83,22.1,30.18c2.23,0.57,4.55,0.8,6.83,1.19c7.8,0,15.6,0,23.4,0   c0.16-0.49,0.46-0.99,0.46-1.48c0.03-10.75,0.03-21.51,0.03-32.27C77.48,54.37,77.34,54.22,75.91,54.22z" fill="#ffffff"/>
	<path d="M13,28.36c-2.6,0.01-5.2,0.08-7.79,0.04c-1.16-0.02-1.56,0.35-1.55,1.56c0.06,5.55,0.03,11.11,0.03,16.66   c0,0,0.01,0,0.01,0c0,5.63,0.02,11.26-0.01,16.9c-0.01,1,0.33,1.43,1.36,1.41c2.76-0.04,5.51-0.04,8.27-0.01   c1.11,0.01,1.53-0.4,1.53-1.54c-0.04-11.07-0.04-22.13-0.05-33.2C14.78,28.69,14.46,28.36,13,28.36z" fill="#ffffff"/>
</g>
</svg>