<svg xmlns="http://www.w3.org/2000/svg" viewBox="0 0 1410.63 1460.83"><defs><style>.cls-1{fill:#fefefe;}.cls-2{fill:#030303;}.cls-3{fill:#f336ac;}</style></defs><title>rr-logo-original</title><g id="Capa_2" data-name="Capa 2"><g id="Capa_1-2" data-name="Capa 1"><path class="cls-1" d="M797.88,1117.82c-3.42,28.8-6.84,58-2.39,86.67s17.85,57.17,41.79,73.53c21.71,14.84,49.07,18,75.22,20.8l128.89,13.63c17.43,1.84,36.4,3.35,51.16-6.11s19.76-34.64,4.77-43.73c-70.62-3.39-144.07-7.55-206-41.73a233.5,233.5,0,0,1-87.1-84.17"/><path class="cls-2" d="M214.6,1376.86,178.34,959.29,80,793.59l28.7-455.35L296,296.42l63,436.31c15.18,105.12,19.91,219.59,48.64,321.93,15.34,54.66,50.71,62.46,103.06,57.31,47-4.62,95.46-6.35,141.83-15.37,27.64-5.37,53.64-16.81,77.49,4,27,23.53,54.13,124.12-7.86,117.67-19.56-2-39.4-14-58.57-18.74-26.52-6.57-54-9.94-81.33-8.71-48.57,2.18-100.35,9.67-148.5,16.26-32.77,4.49-52.93,28.19-77,48.81Q285.8,1316.53,214.6,1376.86Z"/><path class="cls-3" d="M985.54,434.52c-17.32,10.27-32.81,19.26-51.89,25.91C946,463.05,956,460.79,966,459c25-4.5,46.55-16.82,67.5-30.28,27.57-17.72,57.11-30.58,89.67-34.87,53.06-7,100.33,8,142,40.74,45.73,35.93,72,84.61,89.26,138.93,11.56,36.44,18.09,73.92,23,111.78,6.91,53.66,9.21,107.55,10.65,161.59,1,37,2.14,74,1.12,110.88-1.69,61.44-4.09,122.92-19,183-13,52.48-35.33,99.85-76.11,136.84-34.6,31.39-75.6,50.63-120.23,63.18-49.12,13.8-99.3,18.14-149.88,15.29-55.17-3.11-109-13.31-158.28-40.29s-79.18-68.42-91.43-122.85c-12.09-53.7-8.27-107.09,4.31-160.14,11-46.32,25.74-91.52,41.36-136.45a23.66,23.66,0,0,0,.47-15.1c-15.1-53.82-31.85-107.2-43.64-161.91-7.54-35-11.93-70.4-11-106.15,1.16-43.51,12.61-84.14,40.37-118.66,31.76-39.5,72.58-62.3,123.93-64.4C948,429.42,965.57,431.23,985.54,434.52Zm351.77,436.86c.58-60.65-4.3-112.8-16.45-164.06-12.43-52.4-29.47-102.75-66.08-144.34-35.46-40.28-80-61.51-133.07-64.27a397.61,397.61,0,0,0-76.51,3.08c-40.71,5.79-81.18,12.39-120,26.48-28.08,10.2-51.45,27-69,51.24-34.06,47-39.64,100.34-32.14,155.84,5,37.15,15.05,73.37,23.48,109.87,3.84,16.62,7.45,33.29,4.6,50.69-5,30.51-15.15,59.78-21.18,90-7.16,35.87-13,71.66-6.12,108.51,11.58,61.94,46.44,105.59,104,129.23,64.81,26.61,132.58,28.73,200.65,15.09,62.65-12.55,111.7-46.44,146.34-100.24,32-49.64,45.74-105.57,54-163.09C1335.2,938.31,1338,901,1337.31,871.38ZM1013,1305.72c5.82,0,11.65.24,17.46,0,16.17-.77,32.13-2.87,47.36-8.79,3.8-1.47,6.45-3.85,6.17-8.37-.31-5.07-4.6-5.56-8.06-6.54-2.11-.59-4.58-.07-6.88.11a415.69,415.69,0,0,1-102.27-5.16c-18.19-3.12-35.57-8.89-52.7-15.53-6.1-2.36-10.36.54-13.31,5.07s-2.35,9.26,2,13.3c4.09,3.84,8.87,6.33,13.92,8.54C947.43,1301.75,979.85,1305.87,1013,1305.72Zm134-891.11c-5.53,0-11.06-.07-16.58.05-1.41,0-2.78.72-4.2,1-35.2,6.45-66.62,22.35-97.6,39.3-4.11,2.25-11.12,5-9,9.9s9,1.94,13.88.93c17.46-3.61,34-10.35,51-15.32,29.19-8.51,58.4-15.68,89.39-11.79,10.9,1.38,21.54,3.62,32.29,5.5,3.51.61,8,1.7,9.88-3,1.65-4.2-1.12-7.22-4.27-9.53a54.2,54.2,0,0,0-8-4.93A118.1,118.1,0,0,0,1147,414.61Zm197.9,585.53c-1.48,9.39-3,18.47-4.33,27.58-5.43,37.71-15.51,74.08-31.56,108.67-14,30.07-31.16,57.92-57.33,79.19-5.84,4.75-11.9,9.22-18,13.68-5.17,3.81-7,9.39-4.21,14.45,3,5.51,8.75,2.67,13.11.73a78,78,0,0,0,11.09-6.61c16.5-10.87,29.55-25.25,40.45-41.49,38.84-57.88,55.69-122,53.21-191.4C1347.33,1003.35,1347.84,1001.35,1344.92,1000.14ZM868.6,1240.67c1.14-5.09-2.22-8.05-5.32-11.17-17.41-17.55-32.62-36.66-42.3-59.69q-4.83-11.5-9.42-23.11c-1.1-2.78-2-5.86-5.8-5.06-3.53.74-3.87,3.94-4.15,6.86a39.73,39.73,0,0,0,.11,4.36c.33,24,8,45.89,20.21,66.11,6.86,11.36,14.43,22.53,25.78,30.25a15.5,15.5,0,0,0,15.69,1.47C867.14,1249,869.65,1245.46,868.6,1240.67Zm6.09-771.95a18.84,18.84,0,0,0-4.35.62c-23.59,7.39-43.36,20.29-57.33,41-5.59,8.29-10.81,17-12.36,27.14-.53,3.46-.59,7.43,3.91,8.43,3.71.83,7.53.36,10-3.21,1.31-1.89,2.39-3.94,3.51-6,8.65-15.38,20.28-28.08,34.27-38.77A161.29,161.29,0,0,1,878,482.38a8.31,8.31,0,0,0,4.75-9.35C882.19,469.28,879.48,468.69,874.69,468.72Z"/><path class="cls-3" d="M178.34,959.29c1.52,18.1,3.08,36.19,4.53,54.29,1.45,17.94,3.38,35.85,3,53.91-.13,5.67-2.35,9.3-7.36,11.63-30,13.9-60.86,24.94-93.86,28.93-10.13,1.22-16.16-5-16.31-16.71-.38-30,.53-59.95,1.28-89.93.74-29.65.16-59.34.16-89.46-6,1.86-12,4-18,5.48-10.46,2.53-15-.34-17.16-10.88-3.86-18.81-4.41-38-6.09-57-1.56-17.65-1.33-35.46-2.1-53.19-.67-15.53,5.57-27.51,17.93-36.56,47.2-34.59,99.66-57.29,157.27-67,27.24-4.56,55-5.26,81.12,6.86,35.84,16.61,47.93,48,43.61,83.71-5.37,44.27-28,78.46-62.95,105-5.17,3.93-1.61,5.58.9,7.6,16.12,12.94,31.56,26.64,46.77,40.61,14.59,13.41,28.77,27.2,40.52,43.24,8.38,11.43,7.53,20.05-2.15,30.27-12.46,13.15-25.8,25.22-41.56,34.3-16.83,9.69-27.64,8.48-42.72-4-27.66-22.85-52.15-49-77.59-74.19-2.48-2.45-4.66-5.2-7-7.82Zm-35.89-79.83c17-7.81,32.13-17.37,46.64-27.78C204,841,218.21,829.45,225.64,811.74c8.61-20.55-2-36.6-24.25-37.29-21.28-.67-40.13,6.85-58.78,15.74-4.25,2-4.67,4.91-4.63,9C138.2,825.66,138.82,852,142.45,879.46Z"/><path class="cls-1" d="M162.8,1236.07c-13.57,5.85-26,12.66-40.63,12.15-4.27-.15-7.36-1.87-7.7-5.4-2.18-22.39-8.39-44.46-4.65-67.34,1.81-11,8.39-18.06,16.87-23.91,40.48-27.92,85.07-47.77,130.46-66,30.86-12.39,62.19-23.39,95.08-29,58.66-10,104,13.9,116.23,79.81,9.14,49.41-5.11,94.7-27.06,138-41.12,81.16-107.21,130.72-195.24,151.39-18.81,4.41-38.08,7.3-57.56,7.44-11.41.08-15.09-3.8-17.27-15-2.93-15-1.88-30.17-2.76-45.23C166,1327.78,164.65,1282.42,162.8,1236.07Zm157.94-91c-17,1-38.45,10.3-59.25,21.39-3.72,2-2.35,5.44-2.19,8.52,1,19.45,1.86,38.91,3.07,58.34,1.63,26.07,3.58,52.11,5.31,78.17.29,4.42,1.77,5.84,6.57,5a59.88,59.88,0,0,0,20.82-7.69c42.26-25.68,69.13-62.27,75-111.91C373.41,1169.05,358.66,1144.65,320.74,1145.06Z"/><path class="cls-3" d="M617,767c1.51,49.17-5,96.07-24.73,140.15-20.28,45.39-51.1,81.33-101,95.09-35.31,9.75-70.43,8.21-100.8-15.54-21.65-16.93-32.56-41.11-39-67.15-9.63-38.9-10.69-78.59-9.56-118.44.68-24.13,1.91-48.21,4.22-72.23,1.66-17.26,3.47-34.54,7.32-51.47,1.92-8.47,6.93-14.71,15.38-18.62,21.9-10.15,45.08-16.09,68.26-22.12,5.81-1.51,8.7,1.22,9.14,7.12,1.21,16.59.2,33.22-1,49.67-1,13.61-1.34,27.27-2.47,40.89a810.75,810.75,0,0,0-2,92.49c.42,13.57,1.34,27.27,5.2,40.43,2.84,9.68,6.9,19.16,18.49,20.61s20-4.21,26.06-13.89c9.84-15.86,13.4-33.81,16.2-51.74,6.11-39,4.53-78.14.54-117.3-2.56-25.12-4.14-50.35-6.16-75.53-.44-5.52,1.43-9,7.15-11.07,24.45-8.85,49.62-15.17,74.69-21.82,11.37-3,14.16-.9,16.64,11.13,4.77,23.21,7.91,46.68,10.9,70.2C614.35,707.83,618.23,737.74,617,767Z"/><path class="cls-1" d="M611.87,1344.32c-61.79,1.13-106.52-37.82-124-99-9.9-34.53-10-69.52-5.72-105,4.21-35.15,14.64-67.85,34.35-97.32,25-37.44,60.11-58.19,104.78-64.45,56.32-7.89,103.27,23,124.58,71.71,4.23,9.67-1,19.16-2.07,28.63a486.47,486.47,0,0,0-1.42,87.85c1.43,20.51,6,40.33,11.59,60a9.1,9.1,0,0,1,.38,4.81c-10.86,53.87-63,103.07-117.29,111.1C628.58,1343.9,620.26,1344,611.87,1344.32Zm63-184.73c-.18-24.33-2.68-45.53-14.15-64.75-8-13.37-18.41-23-35-23.21-18.31-.22-29.94,10.14-38.48,25-13.62,23.77-17.1,49.69-16.17,76.53.64,18.65,4.18,36.45,14.84,52.31,17.74,26.38,47.34,28,67.31,3.53C670.38,1208.05,674.64,1183.14,674.9,1159.59Z"/><path class="cls-1" d="M1016.56,407.21c-13.51,1.65-25.55-1.45-37.76-1.49-24.46-.1-48.49,2.43-71.81,9.82-5.62,1.78-6.94-.5-8.44-4.85-2.08-6.05-.63-15.23-6.77-17.42-5-1.78-12.08,2.19-18.22,3.67-17,4.09-34,8.35-51,12.24-3.9.89-6.1,2.16-6.53,6.51-.71,7.19-3,14.33-2.89,21.46.24,10.38-3,17.85-11.26,24.56A159.58,159.58,0,0,0,776,488.76c-4.73,6.18-12.28,5.1-18.89,6.59a139.34,139.34,0,0,1-32.76,3.2c-6.72-.09-9.91-3.59-11.18-9.75-3.14-15.26,1.68-29.84,4.07-44.54,4.64-28.64,10.12-57.13,15.16-85.7,4.59-26.05,9.18-52.09,13.54-78.18s8.32-52.3,12.74-78.41c3.36-19.82,7.37-39.52,10.74-59.33,2-11.54,9.73-16.12,20-18.08,25.71-4.92,51.18-10.82,76.58-17.14,15.21-3.78,21-1,27.37,13.65q54.24,125.52,108.22,251.13C1006.5,383.72,1011.43,395.25,1016.56,407.21Zm-171-152.6c-1.15,1.21-2.08,1.75-2.3,2.49-7.32,25.41-10.7,51.64-16.15,77.45-.43,2.05-.71,4.54,3.51,3.41,13-3.47,26.24-6.27,39.31-9.58,2.48-.62,4.24-1.95,2.73-5.66C863.45,300.23,854.63,277.59,845.53,254.61Z"/><path class="cls-1" d="M1130.73,31.66c24-.1,44.71,4.15,64.36,13.8,12.4,6.09,18.7,14.42,18.22,29.27-.75,23.44-5.5,45.58-16,66.39-7.75,15.35-10.46,16-25.29,8.26-12.5-6.56-25.34-12-39.51-13.58s-27.21,1.28-38.1,10.52c-12.6,10.68-11.48,28,1.81,37.92,16.58,12.43,36.48,16.52,55.74,22.22,24,7.09,48.48,13.17,68.15,30,17.74,15.18,27.07,34.73,29.65,57.83,2.76,24.72-1.78,47.67-16.33,68.09-4.19,5.86-9.63,10.82-14.49,16.21-2.44,2.71-4.83,2.71-8.42,1.52-19.49-6.46-39.35-11.1-60.11-11-39.5.21-76.1,10.82-110.27,30.3-9.51,5.43-9.46,5.55-13.59-4.24q-10.53-24.9-21-49.83c-.56-1.33-1.11-2.66-1.62-4-2.16-5.72,12.92-38.71,18.75-40.21,5.52-1.43,10.76.47,15.9,2.68,14.5,6.23,28.91,12.58,44.15,17a50,50,0,0,0,33-1.18c11-4.19,12.71-13.08,4.3-21.5-6.71-6.73-15.51-9.76-24.13-12.78-20.76-7.28-41.63-14.19-62-22.52-59.92-24.47-76-83.13-52.1-137.21,22.59-51.16,63.12-79.23,116.72-90.29C1109.85,33,1121.3,31.08,1130.73,31.66Z"/><path class="cls-1" d="M605.87,393.32c7.87-18.87,12.57-38.55,18.14-57.93,16.81-58.52,28.49-118.25,41.71-177.61,1.44-6.46,5.19-8.94,10.08-10.22,14.29-3.76,28.75-3.22,43.08,0,6.35,1.43,8.38,6.08,8.37,12.3,0,20.06-3.14,39.81-6.27,59.52-5.27,33.28-10.68,66.55-16.62,99.72-6.29,35.08-13.24,70.05-20,105.05-4.29,22.28-8.93,44.5-13,66.82-2.07,11.37-8.08,17.93-19.16,21.72-30.62,10.46-60.94,21.8-92.34,29.83-11.87,3-15.8,1.18-19.63-10.19-13.89-41.26-24.08-83.58-34.87-125.7-10.62-41.41-20.57-83-28.92-125q-6-30.07-11.09-60.33a14.47,14.47,0,0,1,6.45-15.11c15.65-10.09,32.88-16.9,50.57-22.25,9.54-2.89,14.11.87,17.77,12.63,8.28,26.57,16.29,53.22,24.55,79.79C576.13,313.12,587,350,601.38,385.66,602.43,388.26,602.83,391.25,605.87,393.32Z"/><path class="cls-1" d="M482.67,549c.09,16.69-1.36,19.19-13.2,23.37-23.78,8.41-47,18.35-71.62,24.45-11.53,2.86-15.52.35-16.77-11.24-3.11-28.89-3.72-57.94-5.49-86.91-3.43-56.33-5.1-112.71-6.06-169.1-.48-27.9.64-55.82,2.91-83.67.58-7,4.78-11.64,10.72-14.74a139.46,139.46,0,0,1,42.51-14c6.45-1,11,1.67,13.57,8.11,4,10,5,20.69,6.5,31.17,4.26,29.73,8.16,59.51,11.88,89.31,2.76,22.11,4.83,44.3,7.53,66.42,3.1,25.52,6.58,51,9.86,76.49C477.77,510.24,480.48,531.76,482.67,549Z"/><path class="cls-3" d="M640,726.43c-.06-16.84-2.1-12.81,12.4-17.77,24.22-8.29,48.16-17.41,73-23.74,6.28-1.6,8.61-.7,10,5.5a470.52,470.52,0,0,1,9.12,59.88c3.25,34.35,5.92,68.76,8.31,103.17,1.15,16.52,1.22,33.11,1.58,49.68.15,7-2.48,11.35-10.29,13.5-25.56,7-51.33,13.07-77.24,18.5-9.21,1.92-11.47-.35-13.25-10C649,900,648.78,874.39,646.9,849c-2.79-37.62-4.68-75.3-6.9-113C639.81,732.83,640,729.63,640,726.43Z"/><path class="cls-3" d="M729,634.57a17.66,17.66,0,0,0,0,3.49c1.86,9-2.51,12.17-10.87,14.56-24.32,6.93-48.29,15.11-72.46,22.61-10.57,3.28-10.29,2.63-11.38-8.47-2-20.29-.82-40.64-2.47-60.91-2-24.64-1-26.38,22.2-33,17.14-4.91,34.44-9.27,51.74-13.62,10.91-2.75,16.17.87,17.9,12.19,1.36,8.85,2.55,17.75,3.25,26.67C727.89,610.22,728.33,622.4,729,634.57Z"/><path class="cls-1" d="M1125.25,167a55.73,55.73,0,0,1,27.43,7.5C1143.08,173.81,1134.23,170.15,1125.25,167Z"/><path class="cls-1" d="M1147,414.61a118.1,118.1,0,0,1,56.82,12.12,54.2,54.2,0,0,1,8,4.93c3.15,2.31,5.92,5.33,4.27,9.53-1.83,4.67-6.37,3.58-9.88,3-10.75-1.88-21.39-4.12-32.29-5.5-31-3.89-60.2,3.28-89.39,11.79-17,5-33.56,11.71-51,15.32-4.89,1-11.8,3.84-13.88-.93s4.85-7.65,9-9.9c31-16.95,62.4-32.85,97.6-39.3,1.42-.26,2.79-.95,4.2-1C1136,414.54,1141.49,414.61,1147,414.61Z"/><path class="cls-1" d="M1344.92,1000.14c2.92,1.21,2.41,3.21,2.47,4.8,2.48,69.41-14.37,133.52-53.21,191.4-10.9,16.24-24,30.62-40.45,41.49a78,78,0,0,1-11.09,6.61c-4.36,1.94-10.09,4.78-13.11-.73-2.76-5.06-1-10.64,4.21-14.45,6.06-4.46,12.12-8.93,18-13.68,26.17-21.27,43.38-49.12,57.33-79.19,16-34.59,26.13-71,31.56-108.67C1341.9,1018.61,1343.44,1009.53,1344.92,1000.14Z"/><path class="cls-1" d="M874.69,468.72c4.79,0,7.5.56,8.1,4.31a8.31,8.31,0,0,1-4.75,9.35A161.29,161.29,0,0,0,852.33,498c-14,10.69-25.62,23.39-34.27,38.77-1.12,2-2.2,4.06-3.51,6-2.46,3.57-6.28,4-10,3.21-4.5-1-4.44-5-3.91-8.43,1.55-10.17,6.77-18.85,12.36-27.14,14-20.73,33.74-33.63,57.33-41A18.84,18.84,0,0,1,874.69,468.72Z"/><path class="cls-2" d="M674.9,1159.59c-.26,23.55-4.52,48.46-21.63,69.46-20,24.5-49.57,22.85-67.31-3.53-10.66-15.86-14.2-33.66-14.84-52.31-.93-26.84,2.55-52.76,16.17-76.53,8.54-14.91,20.17-25.27,38.48-25,16.57.19,27,9.84,35,23.21C672.22,1114.06,674.72,1135.26,674.9,1159.59Z"/><path class="cls-2" d="M845.53,254.61c9.1,23,17.92,45.62,27.1,68.11,1.51,3.71-.25,5-2.73,5.66-13.07,3.31-26.28,6.11-39.31,9.58-4.22,1.13-3.94-1.36-3.51-3.41,5.45-25.81,8.83-52,16.15-77.45C843.45,256.36,844.38,255.82,845.53,254.61Z"/><path class="cls-3" d="M1031.85,1040.52c6.61-15.36,9.55-29.66,13.26-43.69,7.74-29.25,13.63-59.09,25.74-87,22.24-51.23,58.85-86.68,114.76-97.73,40.63-8,79.32-1,114.61,22.11,19.59,12.82,24.25,31.36,22.47,52.93-2.18,26.27-4.33,52.56-8.34,78.64-2.81,18.24-5.47,36.52-10.23,54.42-.93,3.48-1.66,5.57-5.78,6.09-17.25,2.2-27.4,13.17-32.25,28.87-1.62,5.23-3.35,7.31-8.59,8.72-22.2,6-39.94,18.09-50,39.54-1.72,3.66-3.92,4.87-7.9,5-22.29.77-41.3,9.92-58.36,23.66-5,4.06-9.42,7-17.12,6.36-23.25-1.88-46.32.19-67.84,10.49-2.73,1.31-4.6.76-7.23-.18-22.31-8-45.2-9.23-68.37-4.73-2.76.54-4.64,1.08-7.06-1-16-13.57-34.35-18.51-55-14-4.48,1-5.31-2.51-7-5-8.5-12.24-19.28-21.57-33.52-26.57a25.19,25.19,0,0,0-2.37-1.09c-15.26-3.74-15.57-4.59-17.65-20.77-7.61-59,4.7-114.37,33.83-165.39,26.1-45.72,66.36-73.41,118.88-81.79a166.75,166.75,0,0,1,69.81,3.75c6.68,1.78,7.88,4.45,2.57,9.82-27.22,27.51-41.13,61.67-48.28,99-4,21-8.09,42.19-7,63.77C1028.5,1016,1030.33,1027.13,1031.85,1040.52Z"/><path class="cls-1" d="M891.54,606c-.16-3.15.29-6.48-.56-9.43-4.8-16.61,1.57-28.52,14.65-38.49,11.34-8.65,24.1-14.1,37.87-15.41,12.51-1.19,22.16,6.11,30.07,17.84,0-5-.1-8.33,0-11.67.46-13.58,7.63-22.76,21-25.94a258.17,258.17,0,0,1,50.54-7c29-1,33.87,10.83,41.83,30.2.76,1.83,1,3.81,3,5.66.9-4.24,1.52-8.24,2.61-12.09,5.51-19.43,16-25.21,41.23-21.75,11.35,1.55,22.56,4.31,33.71,7,10,2.45,16.76,8.68,19,19,1.67,7.77,4.42,15.33,4,23.63,3.82-.65,3.78-3.87,5-5.88,6.85-11.59,16.8-14.71,27.51-6.93a124.74,124.74,0,0,1,42.22,54c6.34,15.31-5,28.88-21.1,25.75a129.32,129.32,0,0,1-46.62-18.92c-8.72-5.72-6.9-14.52-7.47-25-6.57,19.15-18.75,25.26-36.62,23.73-12.42-1.07-24.83-1.88-37.08-4.14-14.91-2.74-20.5-7.84-26.78-24.53-4.19,19.9-19.37,20.93-34.27,23-11.61,1.63-23.23,1.11-34.84,1.71-16.1.84-29.93-2-37.35-19.32.5,12.52-2.48,22.57-13.74,28.78-9.9,5.46-20.52,8.84-31.42,11.3-12.22,2.75-24.64,5.14-35.11-5.17-.33.84-.86,1.51-.69,1.84,7.2,14.53,6.71,17.13-6.3,29.75-6.5,6.3-14.19,10.7-22.54,14.12s-15.74,1.55-20.88-5.44C844.89,656,841.9,644.51,845.8,632a143.91,143.91,0,0,1,12.45-28.1c6.58-11.6,15.41-13.11,25.15-4.07,2.29,2.13,4.06,4.84,6.06,7.28Z"/><path class="cls-1" d="M1217.1,1129.61c.56-23.11,13.29-37.24,31.55-47.13,9.25-5,19-6.16,28.81-.27,4.56,2.74,5,6,3.06,10.07-10.35,21.51-21.78,42.28-37.53,60.55-5.29,6.14-9.34,7.76-16.6-.9,3.11,17.38-6.61,24.61-17.29,31.63-13.19,8.67-26,17.86-41.27,22.79-10.11,3.28-14.09,1.68-19.22-9.32-1.33,19.87-14.85,24.21-29.94,26.33-10.31,1.45-20.66,2.82-31,3.56-17.17,1.21-22.62-2.83-27.53-19.16-.4-1.31-1.06-2.54-2.32-5.5-.17,3.66-.3,5.5-.34,7.33-.33,16.6-6.09,21-22.37,18.5-10-1.56-20.19-2.07-30.32-2.68-19.53-1.2-25.42-6.58-28.45-27.1-.89,3.39-1.46,6.3-2.4,9.07-2.6,7.69-8.43,11.13-16.12,8.72a253.69,253.69,0,0,1-36.66-14.2c-9.74-4.81-16.34-11.48-15.76-25.39-6.74,11.87-11.47,7-17.15,1.29a187.35,187.35,0,0,1-30.86-41.6c-3.93-7.11-3.69-14,1.73-20,5.12-5.71,11.5-5.36,18.31-3,16.13,5.67,23.84,15.59,24.41,32.65.18,5.14,3,9.69,2.1,15,8.68-14.58,19.89-21.42,33.88-19.1,17.89,3,30.42,3.56,37.06,33.59,3.17-.24,1.93-3.07,2.62-4.66,4.33-10.06,11.87-15.17,22.88-15.21,7.86,0,15.73-.19,23.57.11,18.28.69,25.71,6.32,31.92,23.58.56,1.55,1.45,3,3.26,6.65-.44-11.94.8-21.19,9.78-26.42,8-4.66,17.38-5.51,26.32-7.36,4.23-.88,8.58-1.22,12.88-1.78,13.87-1.82,25.62,1.82,34.15,14.76C1146.07,1132.19,1187.67,1112.54,1217.1,1129.61Z"/><path class="cls-1" d="M1284.06,1081.53c-8.43-9.48-11.59-19.63-3.23-30.86a18.2,18.2,0,0,1,3.4-3.85c3.43-2.58,7.65-6.76,11.4-4.47,4.12,2.53-.09,7.44-1.15,10.79C1291.42,1062.81,1288.79,1072.71,1284.06,1081.53Z"/><path class="cls-2" d="M1337.31,871.38c.58-60.65-4.3-112.8-16.45-164.06-12.43-52.4-29.47-102.75-66.08-144.34-35.46-40.28-80-61.51-133.07-64.27a397.61,397.61,0,0,0-76.51,3.08c-40.71,5.79-81.18,12.39-120,26.48-28.08,10.2-51.45,27-69,51.24-34.06,47-39.64,100.34-32.14,155.84,5,37.15,15.05,73.37,23.48,109.87,3.84,16.62,7.45,33.29,4.6,50.69-5,30.51-15.15,59.78-21.18,90-7.16,35.87-13,71.66-6.12,108.51,11.58,61.94,46.44,105.59,104,129.23,64.81,26.61,132.58,28.73,200.65,15.09,62.65-12.55,111.7-46.44,146.34-100.24,32-49.64,45.74-105.57,54-163.09C1335.2,938.31,1338,901,1337.31,871.38ZM852.38,666.22C844.89,656,841.9,644.51,845.8,632a143.91,143.91,0,0,1,12.45-28.1c6.58-11.6,15.4-13.11,25.15-4.07,2.29,2.13,4.06,4.84,6.06,7.28l2.07-1.11c-.15-3.15.3-6.48-.55-9.43-4.8-16.61,1.57-28.52,14.65-38.49,11.34-8.65,24.1-14.1,37.87-15.41,12.51-1.19,22.16,6.11,30.07,17.84,0-5-.1-8.33,0-11.67.46-13.58,7.63-22.76,21-25.94a258.17,258.17,0,0,1,50.54-7c29-1,33.87,10.83,41.83,30.2.76,1.83,1,3.81,3,5.66.9-4.24,1.52-8.24,2.61-12.09,5.51-19.43,16-25.21,41.23-21.75,11.35,1.55,22.56,4.31,33.71,7,10,2.45,16.76,8.68,19,19,1.67,7.77,4.42,15.33,4,23.63,3.82-.65,3.78-3.87,5-5.88,6.85-11.59,16.8-14.71,27.51-6.93a124.74,124.74,0,0,1,42.22,54c6.34,15.31-5,28.88-21.1,25.75a129.32,129.32,0,0,1-46.62-18.92c-8.72-5.72-6.9-14.52-7.47-25-6.57,19.15-18.75,25.26-36.62,23.73-12.42-1.07-24.83-1.88-37.08-4.14-14.91-2.74-20.5-7.84-26.78-24.53-4.19,19.9-19.37,20.93-34.27,23-11.61,1.63-23.23,1.11-34.84,1.71-16.1.84-29.93-2-37.35-19.32.5,12.52-2.48,22.57-13.74,28.78-9.9,5.46-20.52,8.84-31.42,11.3-12.22,2.75-24.64,5.14-35.11-5.17-.33.84-.86,1.51-.69,1.84,7.2,14.53,6.71,17.13-6.3,29.75-6.5,6.3-14.19,10.7-22.54,14.12S857.52,673.21,852.38,666.22Zm428.14,426.06c-10.35,21.51-21.78,42.28-37.53,60.55-5.29,6.14-9.34,7.76-16.6-.9,3.11,17.38-6.61,24.61-17.29,31.63-13.19,8.67-26,17.86-41.27,22.79-10.11,3.28-14.09,1.68-19.22-9.32-1.33,19.87-14.85,24.21-29.94,26.33-10.31,1.45-20.66,2.82-31,3.56-17.17,1.21-22.62-2.83-27.53-19.16-.4-1.31-1.06-2.54-2.32-5.5-.17,3.66-.3,5.5-.34,7.33-.33,16.6-6.09,21-22.37,18.5-10-1.56-20.19-2.07-30.32-2.68-19.53-1.2-25.42-6.58-28.45-27.1-.89,3.39-1.46,6.3-2.4,9.07-2.6,7.69-8.43,11.13-16.12,8.72a253.69,253.69,0,0,1-36.66-14.2c-9.74-4.81-16.34-11.48-15.76-25.39-6.74,11.87-11.47,7-17.15,1.29a187.35,187.35,0,0,1-30.86-41.6c-3.93-7.11-3.69-14,1.73-20,5.12-5.71,11.5-5.36,18.31-3,16.13,5.67,23.84,15.59,24.41,32.65.18,5.14,3,9.69,2.1,15,8.68-14.58,19.89-21.42,33.88-19.1,17.89,3,30.42,3.56,37.06,33.59,3.17-.24,1.93-3.07,2.62-4.66,4.33-10.06,11.87-15.17,22.88-15.21,7.86,0,15.73-.19,23.57.11,18.28.69,25.71,6.32,31.92,23.58.56,1.55,1.45,3,3.26,6.65-.44-11.94.8-21.19,9.78-26.42,8-4.66,17.38-5.51,26.32-7.36,4.23-.88,8.58-1.22,12.88-1.78,13.87-1.82,25.62,1.82,34.15,14.76,3.85-32.83,45.45-52.48,74.88-35.41.56-23.11,13.29-37.24,31.55-47.13,9.25-5,19-6.16,28.81-.27C1282,1085,1282.5,1088.17,1280.52,1092.28Zm14-39.14c-3,9.67-5.69,19.57-10.42,28.39-8.43-9.48-11.59-19.63-3.23-30.86a18.2,18.2,0,0,1,3.4-3.85c3.43-2.58,7.65-6.76,11.4-4.47C1299.75,1044.88,1295.54,1049.79,1294.48,1053.14Zm28.21-166c-2.18,26.27-4.33,52.56-8.34,78.64-2.81,18.24-5.47,36.52-10.23,54.42-.93,3.48-1.66,5.57-5.78,6.09-17.25,2.2-27.4,13.17-32.26,28.87-1.61,5.23-3.34,7.31-8.58,8.72-22.2,6-39.94,18.09-50,39.54-1.72,3.66-3.92,4.87-7.9,5-22.29.77-41.3,9.92-58.36,23.66-5,4.06-9.42,7-17.12,6.36-23.25-1.88-46.32.19-67.84,10.49-2.73,1.31-4.6.76-7.23-.18-22.31-8-45.2-9.23-68.37-4.73-2.76.54-4.64,1.08-7.06-1-16-13.57-34.35-18.51-55-14-4.48,1-5.31-2.51-7-5-8.5-12.24-19.28-21.57-33.52-26.57a25.19,25.19,0,0,0-2.37-1.09c-15.26-3.74-15.57-4.59-17.65-20.77-7.61-59,4.7-114.37,33.83-165.39,26.1-45.72,66.36-73.41,118.88-81.79a166.75,166.75,0,0,1,69.81,3.75c6.68,1.78,7.88,4.45,2.57,9.82-27.22,27.51-41.13,61.67-48.28,99-4,21-8.09,42.19-7,63.77.58,11.19,2.41,22.31,3.93,35.7,6.61-15.36,9.55-29.66,13.26-43.69,7.74-29.25,13.63-59.09,25.74-87,22.24-51.23,58.85-86.68,114.76-97.73,40.63-8,79.32-1,114.61,22.11C1319.81,847.05,1324.47,865.59,1322.69,887.16Z"/><path class="cls-2" d="M1393.14,641.23c-8-46.37-19.39-91.62-40.55-133.85-22.59-45.07-52.65-83.74-97.39-109.19-9-5.14-8.79-5-2.25-13.73,31.28-41.69,35.07-86.8,14.35-133.71-13.31-30.13-38.69-48-68.38-60.45-1.8-.75-5.42-.2-5.19-3.51.15-2.08,2.55-3,4.46-3.7,10.64-4.05,17.5-12.31,22.94-21.66,12.13-20.85,18.88-43.52,22.19-67.39,5-36.42-3.07-62.59-40.76-79.5-35-15.72-72-17.69-109.47-10.69-68.74,12.84-116.23,51.3-140.65,117.44-4.54,12.3-6.57,25.23-9.84,38.41-3.8-3-4.37-6.73-5.76-10-8.12-19.22-14.53-39.16-26.61-56.61-11.09-16-26.53-20.15-44.18-16.85-23.11,4.33-46,10-68.95,15.09-21.78,4.79-43.09,10.25-52,34.41-1.1,3-2.49,2.19-4.56.8-4.51-3-9-6-14.48-7.4-13.43-3.46-26.91-3.11-40.56-1.72-29.74,3-45.15,13.48-50,43.75-7.9,49.73-20.45,98.72-31.07,148.18-2.24-1.1-2.64-2.78-3.14-4.47-7.55-25.53-15-51.09-22.73-76.57-5.39-17.79-8.67-36.31-17.47-52.93-8.06-15.23-22.17-24-37.63-20.78-27.23,5.63-52.78,15.84-74.28,34.27-2.35,2-4.19,3.35-7.59,2.31-15.44-4.71-30.59-1.38-45.11,3.53-24.29,8.21-47.85,17.91-50.29,49.92-12.44-7.25-22.68-14.81-34.77-18.78-29.88-9.81-65.33-4.83-96.11-.35a449,449,0,0,0-94.18,24.4C93.29,260.44,64.37,273.36,40,290.62c-20.58,14.56-28.16,46.31-28.87,70.31q-1.12,37.8.9,75.61c1.18,21.88-.26,41.58,17.59,56.95,3.63,3.12,9.35,4.22,13.35,6.91a106,106,0,0,0-.27,11.53c3.09,51.88-.17,103.58-1.88,155.34-.57,17.41-1.8,34.79,9.44,50,2.4,3.25,0,5.17-2.75,6.85-5.16,3.2-10.37,6.36-15.29,9.91C11.15,749.18-.39,768.94,0,795.77c.56,37.47,2.43,74.79,9.18,111.67,2.91,15.92,8.06,31.73,26.86,35.46,7.18,1.43,8,4.06,8.09,10.46.49,47.47-3.31,94.87-2,142.35.56,19.91,12.22,33.89,31.7,39,9.17,2.41,18.31.15,27.49,1.32-19.52,22.47-17.79,28-17.71,46.7a432.73,432.73,0,0,0,3.73,52.06c3.45,27.4,11.11,43.54,44.6,40.92,4.72-.37,6.18,1,6.55,6.06,2.64,35.72,3.54,71.49,3.31,107.3a207.26,207.26,0,0,0,1.54,29.53c3.41,24.75,22.49,43.29,45.76,42.15,24-1.18,48.1-3.13,71.48-9.15,91.54-23.56,159.52-77.35,204.59-160.34,1.78-3.28,2.38-7.53,6.17-9.83,7.57,17,17.34,32.38,30.14,45.41,34.87,35.53,77.17,50.53,126.89,45.53,42.13-4.23,77.11-22.48,107.14-51.59,15.35-14.87,27-32.38,37.42-51.35,1.39,1.76,2.46,3,3.37,4.31a215.54,215.54,0,0,0,82.22,72c63,31.81,130.81,41.68,200.33,41.43,44.12-.17,87.76-6.1,130.2-18.79,88.43-26.45,155.13-77.76,189-166.31,21.39-56,27.37-114.82,30.41-174,1.71-33.41,2.09-66.91,2.17-100.4C1410.83,831.83,1409.55,736.12,1393.14,641.23ZM981.77,125.64c22.59-51.16,63.12-79.23,116.72-90.29,11.36-2.34,22.81-4.27,32.24-3.69,24-.1,44.71,4.15,64.36,13.8,12.4,6.09,18.7,14.42,18.22,29.27-.75,23.44-5.5,45.58-16,66.39-7.75,15.35-10.46,16-25.29,8.26-12.5-6.56-25.34-12-39.51-13.58s-27.21,1.28-38.1,10.52c-12.6,10.68-11.48,28,1.81,37.92,16.58,12.43,36.48,16.52,55.74,22.22,24,7.09,48.48,13.17,68.15,30,17.74,15.18,27.07,34.73,29.65,57.83,2.76,24.72-1.78,47.67-16.33,68.09-4.19,5.86-9.63,10.82-14.49,16.21-2.44,2.71-4.83,2.71-8.42,1.52-19.49-6.46-39.35-11.1-60.11-11-39.5.21-76.1,10.82-110.27,30.3-9.51,5.43-9.46,5.55-13.59-4.24q-10.53-24.9-21-49.83c-.56-1.33-1.11-2.66-1.62-4-2.16-5.72,12.92-38.71,18.75-40.22,5.52-1.42,10.76.48,15.9,2.69,14.5,6.23,28.91,12.58,44.15,17a50,50,0,0,0,33-1.18c11-4.19,12.71-13.08,4.3-21.5-6.71-6.73-15.51-9.76-24.13-12.78-20.76-7.28-41.63-14.19-62-22.52C974,238.38,957.88,179.72,981.77,125.64ZM471.82,206.27c15.65-10.09,32.88-16.9,50.57-22.25,9.54-2.89,14.11.87,17.77,12.63,8.28,26.57,16.29,53.22,24.55,79.79C576.13,313.12,587,350,601.38,385.66c1,2.6,1.45,5.59,4.49,7.66,7.87-18.87,12.57-38.55,18.14-57.93,16.81-58.52,28.49-118.25,41.71-177.61,1.44-6.46,5.19-8.94,10.08-10.22,14.29-3.76,28.75-3.22,43.08,0,6.35,1.43,8.38,6.08,8.37,12.3,0,20.06-3.14,39.81-6.27,59.52-5.27,33.28-10.68,66.55-16.62,99.72-6.29,35.08-13.24,70.05-20,105.05-4.29,22.28-8.93,44.5-13,66.82-2.07,11.37-8.08,17.93-19.16,21.72-30.62,10.46-60.94,21.8-92.34,29.83-11.87,3-15.8,1.18-19.63-10.19-13.89-41.26-24.08-83.58-34.87-125.7-10.62-41.41-20.57-83-28.92-125q-6-30.07-11.09-60.33A14.47,14.47,0,0,1,471.82,206.27ZM729,638.06c1.86,9-2.51,12.17-10.87,14.56-24.32,6.93-48.29,15.11-72.46,22.61-10.57,3.28-10.29,2.63-11.38-8.47-2-20.29-.82-40.64-2.47-60.91-2-24.64-1-26.38,22.2-33,17.14-4.91,34.44-9.27,51.74-13.62,10.91-2.75,16.17.87,17.9,12.19,1.36,8.85,2.55,17.75,3.25,26.67,1,12.15,1.4,24.33,2.05,36.5A18.45,18.45,0,0,0,729,638.06Zm-76.64,70.6c24.22-8.29,48.16-17.41,73-23.74,6.28-1.6,8.61-.7,10,5.5a470.52,470.52,0,0,1,9.12,59.88c3.25,34.35,5.92,68.76,8.31,103.17,1.15,16.52,1.22,33.11,1.58,49.68.15,7-2.48,11.35-10.29,13.5-25.56,7-51.33,13.07-77.24,18.5-9.21,1.92-11.47-.35-13.25-10C649,900,648.78,874.39,646.9,849c-2.79-37.62-4.68-75.3-6.9-113-.19-3.19,0-6.39,0-9.59C639.92,709.59,637.88,713.62,652.38,708.66ZM372.44,245.93c.58-7,4.78-11.64,10.72-14.74a139.46,139.46,0,0,1,42.51-14c6.45-1,11,1.68,13.57,8.11,4,10,5,20.69,6.5,31.17,4.26,29.73,8.16,59.51,11.88,89.31,2.76,22.11,4.83,44.3,7.53,66.42,3.1,25.52,6.58,51,9.86,76.49,2.76,21.51,5.47,43,7.66,60.3.09,16.69-1.36,19.19-13.2,23.37-23.78,8.41-47,18.35-71.62,24.45-11.53,2.86-15.52.35-16.77-11.24-3.11-28.89-3.72-57.94-5.49-86.91-3.43-56.33-5.1-112.71-6.06-169.1C369.05,301.7,370.17,273.78,372.44,245.93Zm-144.95,4.31c24.21-3.76,48.37-4.46,72,3.5,26.77,9,39.22,30.23,44.74,55.86,12.37,57.49-9.57,102.67-52.25,139.83-3.93,3.41-7.83,7.19-12.41,9.44-6.65,3.29-5.19,5.91-.71,9.63a683.45,683.45,0,0,1,55.95,52.61c5.82,6.06,11.09,12.68,16.42,19.2,6.43,7.87,6.9,16.75,4.06,26.18-7,23.27-19.82,42.91-37.7,59.11-14.58,13.22-24.68,13.62-39.26.38-26.51-24.08-51.43-49.82-76-75.88-6.3-6.68-13.51-12.52-20.28-18.73,2.12,25.07,4.59,50.47,6.29,75.93.9,13.54,2.22,27.21-1,40.72-1.51,6.26-4.83,11.29-10.31,14.46-30,17.35-62.25,29.18-96,36.6-7.65,1.68-12.86-3.31-12.89-12.43-.09-26.12-2-54.2,1.54-80.13,1.26-9.06,5.4-16.88,10.27-24.5,7.95-12.44,14.69-24.46,17-39.3a84.3,84.3,0,0,0-5.59-44.67c-4.56-11-10.72-26.8-23.78-27.05-2.11-13.25-1.69-27.38-2.7-40.81-1.65-22-4.52-43.84-6.24-65.8-.9-11.56-2.63-23-2.59-34.72,0-8,3-13.64,9.59-17.06C117.18,285.81,169,259.31,227.49,250.24ZM84.62,1108.05c-10.13,1.22-16.16-5-16.31-16.71-.38-30,.53-59.95,1.28-89.93.75-29.65.16-59.34.16-89.46-6,1.86-12,4-18,5.48-10.46,2.53-15-.34-17.16-10.88-3.86-18.81-4.41-38-6.09-57-1.56-17.65-1.33-35.46-2.1-53.19-.67-15.53,5.57-27.51,17.93-36.56,47.2-34.59,99.66-57.29,157.27-67,27.24-4.56,55-5.26,81.12,6.86,35.84,16.61,47.93,48,43.61,83.71-5.37,44.27-28,78.46-62.95,105-5.17,3.93-1.61,5.58.9,7.6,16.12,12.94,31.56,26.64,46.77,40.61,14.59,13.41,28.77,27.2,40.52,43.24,8.38,11.43,7.53,20.05-2.15,30.27-12.46,13.15-25.8,25.22-41.56,34.3-16.83,9.69-27.64,8.48-42.72-4-27.66-22.85-52.15-49-77.59-74.19-2.48-2.45-4.66-5.2-7-7.82l-2.19.9c1.52,18.1,3.08,36.19,4.53,54.29,1.45,17.94,3.38,35.85,3,53.91-.13,5.67-2.35,9.3-7.36,11.63C148.5,1093,117.62,1104.06,84.62,1108.05ZM441.4,1274.44c-41.12,81.16-107.21,130.72-195.24,151.39-18.81,4.41-38.08,7.3-57.56,7.44-11.41.08-15.09-3.8-17.27-15-2.92-15-1.88-30.17-2.76-45.23-2.62-45.29-3.92-90.65-5.77-137-13.57,5.85-26,12.66-40.63,12.15-4.27-.15-7.36-1.87-7.7-5.4-2.18-22.39-8.39-44.46-4.65-67.34,1.81-11,8.39-18.06,16.87-23.91,40.48-27.92,85.07-47.77,130.46-66,30.86-12.39,62.19-23.39,95.08-29,58.66-10,104,13.9,116.23,79.81C477.6,1185.82,463.35,1231.11,441.4,1274.44ZM390.55,986.68c-21.65-16.93-32.56-41.11-39-67.15-9.63-38.9-10.69-78.59-9.56-118.44.68-24.13,1.91-48.21,4.22-72.23,1.66-17.26,3.47-34.54,7.32-51.47,1.92-8.47,6.93-14.71,15.38-18.62,21.9-10.15,45.08-16.09,68.26-22.12,5.81-1.51,8.7,1.22,9.14,7.12,1.21,16.59.2,33.22-1,49.67-1,13.61-1.34,27.27-2.47,40.89a810.75,810.75,0,0,0-2,92.49c.42,13.57,1.34,27.27,5.2,40.43,2.84,9.68,6.9,19.16,18.49,20.61s20-4.21,26.06-13.9c9.84-15.85,13.4-33.8,16.2-51.73,6.11-39,4.54-78.14.54-117.3-2.56-25.12-4.14-50.35-6.16-75.53-.44-5.52,1.43-9,7.15-11.07,24.45-8.85,49.62-15.17,74.69-21.82,11.37-3,14.16-.9,16.64,11.13,4.77,23.21,7.91,46.68,10.9,70.2,3.83,30,7.71,59.9,6.52,89.14,1.51,49.17-5,96.07-24.73,140.15-20.28,45.39-51.1,81.33-101,95.09C456,1012,420.92,1010.43,390.55,986.68ZM754.3,1231.55c-10.86,53.87-63,103.07-117.29,111.1-8.43,1.25-16.75,1.3-25.14,1.67-61.79,1.13-106.52-37.82-124-99-9.9-34.53-10-69.52-5.72-105,4.22-35.15,14.64-67.85,34.35-97.32,25-37.44,60.11-58.19,104.78-64.45,56.32-7.89,103.27,23,124.58,71.71,4.23,9.67-1,19.16-2.07,28.63a486.47,486.47,0,0,0-1.42,87.85c1.43,20.51,6,40.33,11.59,60A9.1,9.1,0,0,1,754.3,1231.55Zm-30-733c-6.72-.09-9.91-3.59-11.18-9.75-3.14-15.26,1.68-29.84,4.07-44.54,4.64-28.64,10.12-57.13,15.16-85.7,4.59-26.05,9.18-52.09,13.54-78.18s8.32-52.3,12.74-78.41c3.36-19.82,7.37-39.52,10.74-59.33,2-11.54,9.73-16.12,20-18.08,25.71-4.92,51.18-10.82,76.58-17.14,15.21-3.78,21-1,27.37,13.65q54.24,125.52,108.22,251.13c5,11.52,9.89,23.05,15,35-13.51,1.65-25.55-1.45-37.76-1.49-24.46-.1-48.49,2.43-71.81,9.82-5.62,1.78-6.94-.5-8.44-4.85-2.08-6.05-.63-15.23-6.77-17.42-5-1.78-12.08,2.19-18.22,3.67-17,4.09-34,8.35-51,12.24-3.9.89-6.1,2.16-6.53,6.51-.71,7.19-3,14.33-2.89,21.46.24,10.38-3,17.85-11.26,24.56A159.58,159.58,0,0,0,776,488.76c-4.73,6.18-12.28,5.1-18.89,6.59A139.34,139.34,0,0,1,724.33,498.55Zm664.93,459.21c-1.69,61.44-4.09,122.92-19,183-13,52.48-35.33,99.85-76.11,136.84-34.6,31.39-75.6,50.63-120.23,63.18-49.12,13.8-99.3,18.14-149.88,15.29-55.17-3.11-109-13.31-158.28-40.29S786.62,1247.4,774.37,1193c-12.09-53.7-8.27-107.09,4.31-160.14,11-46.32,25.74-91.52,41.36-136.45a23.66,23.66,0,0,0,.47-15.1c-15.1-53.82-31.85-107.2-43.64-161.91-7.54-35-11.93-70.4-11-106.15,1.16-43.51,12.61-84.14,40.37-118.66,31.76-39.5,72.58-62.3,123.93-64.4,17.77-.73,35.37,1.08,55.34,4.37-17.32,10.27-32.81,19.26-51.89,25.91C946,463.05,956,460.79,966,459c25-4.5,46.55-16.82,67.5-30.28,27.57-17.72,57.11-30.58,89.67-34.87,53.06-7,100.34,8,142,40.75,45.73,35.92,72,84.6,89.26,138.92,11.56,36.44,18.09,73.92,23,111.78,6.91,53.66,9.21,107.55,10.65,161.59C1389.13,883.85,1390.28,920.83,1389.26,957.76Z"/><path class="cls-1" d="M182.05,531.37c2.12,25.07,4.59,50.47,6.29,75.93.9,13.54,2.22,27.21-1,40.72-1.51,6.26-4.83,11.29-10.31,14.46-30,17.35-62.25,29.18-96,36.6-7.65,1.68-12.86-3.31-12.89-12.43-.07-19.21.17-38.44.92-57.63,1.32-33.86,3.48-67.67,4.63-101.54q.42-12.42.64-24.85.1-6.48.13-13c0-6.5,3.24-14.05-5.92-15.91-4.79-1-9.26,1.26-14,.61s-9.07-2.33-12.35-5.91c-7.39-8.08-5.66-21.23-6.11-31.27q-.75-17.08-.45-34.18.36-20.65,2.27-41.23c1.35-14.67.84-29,13-39.1,23.78-19.79,53.69-33,82.06-44.84,30.37-12.67,62.09-22.55,94.65-27.6,24.21-3.76,48.37-4.46,72,3.5,26.77,9,39.22,30.23,44.74,55.86,12.37,57.49-9.57,102.67-52.25,139.83-3.93,3.41-7.83,7.19-12.41,9.44-6.65,3.29-5.19,5.91-.71,9.63a683.45,683.45,0,0,1,55.95,52.61c5.82,6.06,11.09,12.68,16.42,19.2,6.43,7.87,6.9,16.75,4.06,26.18-7,23.27-19.82,42.91-37.7,59.11-14.58,13.22-24.68,13.62-39.26.38-26.51-24.08-51.43-49.82-76-75.88C196,543.42,188.82,537.58,182.05,531.37ZM172,435.3c22.17-12.49,42.72-24.53,59.12-42.47,6.43-7,12.79-14.06,16-23.36,4-11.69-1.37-23-12.68-24.55a53.26,53.26,0,0,0-18.19.43c-17.17,3.67-32.93,11-48.9,18-6.22,2.72-6.88,6.19-5.83,11.92C165.09,394.75,168.35,414.3,172,435.3Z"/></g></g></svg>